# xmcd
#
# Track frame offsets:
#	150
#	20170
#	34405
#	52400
#	69475
#	79895
#	98183
#	115098
#	137957
#	153925
#	172404
#	192501
#
# Disc length: 2809 seconds
#
# Revision: 1
# Processed by: cddbd v1.5.2PL0 Copyright (c) Steve Scherf et al.
# Submitted via: audiograbber 1.83.01
#
DISCID=b70af70c
DTITLE=Collin Raye - Fearless
DYEAR=2006
DGENRE=Country
TTITLE0=Just Because
TTITLE1=You"ve Heard That One Before
TTITLE2=Fearless
TTITLE3=Young As We're Ever Going To Be
TTITLE4=Lady
TTITLE5=Makin' Up Time
TTITLE6=Too Hot To Sleep
TTITLE7=Falling In Love Again
TTITLE8=Something To Say
TTITLE9=Forever Starts Right Now
TTITLE10=My Way
TTITLE11=House Of The Rising Sun
EXTD=
EXTT0=
EXTT1=
EXTT2=
EXTT3=
EXTT4=
EXTT5=
EXTT6=
EXTT7=
EXTT8=
EXTT9=
EXTT10=
EXTT11=
PLAYORDER=
